<svg width="24" height="25" viewBox="0 0 24 25" fill="none" xmlns="http://www.w3.org/2000/svg">
<g clip-path="url(#clip0_424_670)">
<path fill-rule="evenodd" clip-rule="evenodd" d="M12 0.329346C5.376 0.329346 0 5.70535 0 12.3293C0 18.9533 5.376 24.3293 12 24.3293C18.612 24.3293 24 18.9533 24 12.3293C24 5.70535 18.612 0.329346 12 0.329346ZM19.926 5.86135C21.4033 7.66026 22.221 9.91022 22.2435 12.2378C21.9045 12.1733 18.5205 11.4833 15.111 11.9123C15.033 11.7443 14.967 11.5613 14.889 11.3798C14.6805 10.8848 14.4465 10.3778 14.2125 9.89485C17.9865 8.36035 19.7055 6.14785 19.9275 5.85985L19.926 5.86135ZM12 2.09935C14.6025 2.09935 16.9845 3.07435 18.795 4.67635C18.612 4.93735 17.0625 7.00585 13.419 8.37235C11.739 5.28835 9.879 2.76235 9.5925 2.37235C10.3817 2.18808 11.1896 2.09646 12 2.09935ZM7.6395 3.06235C9.01301 4.96592 10.2819 6.94284 11.4405 8.98435C6.651 10.2593 2.421 10.2338 1.965 10.2338C2.29478 8.68244 2.97848 7.22817 3.96278 5.98447C4.94707 4.74076 6.20536 3.73974 7.6395 3.06235ZM1.7445 12.3443V12.0293C2.187 12.0443 7.1595 12.1088 12.2745 10.5728C12.573 11.1443 12.846 11.7308 13.107 12.3158L12.702 12.4328C7.419 14.1383 4.608 18.7973 4.3725 19.1888C2.68023 17.3102 1.74398 14.8713 1.7445 12.3428V12.3443ZM12 22.5848C9.72232 22.5884 7.50928 21.8278 5.715 20.4248C5.895 20.0468 7.9785 16.0388 13.7565 14.0213C13.7835 14.0078 13.7955 14.0078 13.8225 13.9958C14.7966 16.5104 15.5284 19.1122 16.008 21.7658C14.742 22.3098 13.3779 22.5886 12 22.5848ZM17.715 20.8283C17.61 20.2028 17.0625 17.2103 15.723 13.5263C18.9375 13.0193 21.7485 13.8518 22.0995 13.9688C21.8809 15.3528 21.3784 16.6766 20.6236 17.8571C19.8688 19.0376 18.878 20.0492 17.7135 20.8283H17.715Z" fill="black"/>
</g>
<defs>
<clipPath id="clip0_424_670">
<rect width="24" height="24" fill="white" transform="translate(0 0.329346)"/>
</clipPath>
</defs>
</svg>
