<svg width="24" height="25" viewBox="0 0 24 25" fill="none" xmlns="http://www.w3.org/2000/svg">
<g clip-path="url(#clip0_424_672)">
<path d="M12 0.625366C5.37 0.625366 0 5.99537 0 12.6254C0 17.9354 3.435 22.4204 8.205 24.0104C8.805 24.1154 9.03 23.7554 9.03 23.4404C9.03 23.1554 9.015 22.2104 9.015 21.2054C6 21.7604 5.22 20.4704 4.98 19.7954C4.845 19.4504 4.26 18.3854 3.75 18.1004C3.33 17.8754 2.73 17.3204 3.735 17.3054C4.68 17.2904 5.355 18.1754 5.58 18.5354C6.66 20.3504 8.385 19.8404 9.075 19.5254C9.18 18.7454 9.495 18.2204 9.84 17.9204C7.17 17.6204 4.38 16.5854 4.38 11.9954C4.38 10.6904 4.845 9.61037 5.61 8.77037C5.49 8.47037 5.07 7.24037 5.73 5.59037C5.73 5.59037 6.735 5.27537 9.03 6.82037C9.99 6.55037 11.01 6.41537 12.03 6.41537C13.05 6.41537 14.07 6.55037 15.03 6.82037C17.325 5.26037 18.33 5.59037 18.33 5.59037C18.99 7.24037 18.57 8.47037 18.45 8.77037C19.215 9.61037 19.68 10.6754 19.68 11.9954C19.68 16.6004 16.875 17.6204 14.205 17.9204C14.64 18.2954 15.015 19.0154 15.015 20.1404C15.015 21.7454 15 23.0354 15 23.4404C15 23.7554 15.225 24.1304 15.825 24.0104C18.2073 23.2064 20.2775 21.6754 21.744 19.633C23.2106 17.5906 23.9996 15.1397 24 12.6254C24 5.99537 18.63 0.625366 12 0.625366Z" fill="black"/>
</g>
<defs>
<clipPath id="clip0_424_672">
<rect width="24" height="23.4079" fill="white" transform="translate(0 0.625366)"/>
</clipPath>
</defs>
</svg>
