<svg width="24" height="25" viewBox="0 0 24 25" fill="none" xmlns="http://www.w3.org/2000/svg">
<g clip-path="url(#clip0_424_668)">
<path d="M0 2.04835C0 1.09885 0.789 0.329346 1.7625 0.329346H22.2375C23.211 0.329346 24 1.09885 24 2.04835V22.6103C24 23.5598 23.211 24.3293 22.2375 24.3293H1.7625C0.789 24.3293 0 23.5598 0 22.6103V2.04835ZM7.4145 20.4203V9.58285H3.813V20.4203H7.4145ZM5.6145 8.10235C6.87 8.10235 7.6515 7.27135 7.6515 6.23035C7.629 5.16685 6.8715 4.35835 5.6385 4.35835C4.4055 4.35835 3.6 5.16835 3.6 6.23035C3.6 7.27135 4.3815 8.10235 5.5905 8.10235H5.6145ZM12.9765 20.4203V14.3678C12.9765 14.0438 13.0005 13.7198 13.0965 13.4888C13.356 12.8423 13.9485 12.1718 14.9445 12.1718C16.248 12.1718 16.7685 13.1648 16.7685 14.6228V20.4203H20.37V14.2043C20.37 10.8743 18.594 9.32635 16.224 9.32635C14.313 9.32635 13.4565 10.3763 12.9765 11.1158V11.1533H12.9525C12.9605 11.1408 12.9685 11.1283 12.9765 11.1158V9.58285H9.3765C9.4215 10.5998 9.3765 20.4203 9.3765 20.4203H12.9765Z" fill="black"/>
</g>
<defs>
<clipPath id="clip0_424_668">
<rect width="24" height="24" fill="white" transform="translate(0 0.329346)"/>
</clipPath>
</defs>
</svg>
